<svg width="24" height="24" viewBox="0 0 24 24" fill="none" xmlns="http://www.w3.org/2000/svg">
<path d="M4.98926 13.4375C6.15592 14.6042 7.57259 15.1875 9.23926 15.1875C10.9059 15.1875 12.3226 14.6042 13.4893 13.4375C14.6559 12.2708 15.2393 10.8542 15.2393 9.1875C15.2393 7.52083 14.6559 6.10417 13.4893 4.9375C12.3226 3.77083 10.9059 3.1875 9.23926 3.1875C7.57259 3.1875 6.15592 3.77083 4.98926 4.9375C3.82259 6.10417 3.23926 7.52083 3.23926 9.1875C3.23926 10.8542 3.82259 12.2708 4.98926 13.4375ZM17.2393 15.1875L23.8643 21.8125L21.8643 23.8125L15.2393 17.1875V16.125L14.8643 15.75C13.2809 17.125 11.4059 17.8125 9.23926 17.8125C6.82259 17.8125 4.76009 16.9792 3.05176 15.3125C1.38509 13.6458 0.551758 11.6042 0.551758 9.1875C0.551758 6.77083 1.38509 4.72917 3.05176 3.0625C4.76009 1.35417 6.82259 0.5 9.23926 0.5C11.6559 0.5 13.6976 1.35417 15.3643 3.0625C17.0309 4.72917 17.8643 6.77083 17.8643 9.1875C17.8643 10.0625 17.6559 11.0625 17.2393 12.1875C16.8226 13.2708 16.3434 14.1458 15.8018 14.8125L16.1768 15.1875H17.2393Z" fill="white"/>
</svg>
