<svg width="27" height="27" viewBox="0 0 27 27" fill="none" xmlns="http://www.w3.org/2000/svg">
<path d="M19.782 22.3125C20.3236 21.7708 20.9486 21.5 21.657 21.5C22.3653 21.5 22.9695 21.7708 23.4695 22.3125C24.0111 22.8542 24.282 23.4792 24.282 24.1875C24.282 24.8958 24.0111 25.5208 23.4695 26.0625C22.9695 26.5625 22.3653 26.8125 21.657 26.8125C20.9486 26.8125 20.3236 26.5625 19.782 26.0625C19.2403 25.5208 18.9695 24.8958 18.9695 24.1875C18.9695 23.4792 19.2403 22.8542 19.782 22.3125ZM0.281982 0.1875H4.65698L5.90698 2.8125H25.657C26.032 2.8125 26.3445 2.95833 26.5945 3.25C26.8445 3.5 26.9695 3.8125 26.9695 4.1875C26.9695 4.22917 26.907 4.4375 26.782 4.8125L22.032 13.4375C21.532 14.3542 20.7611 14.8125 19.7195 14.8125H9.78198L8.59448 17L8.53198 17.1875C8.53198 17.3958 8.63615 17.5 8.84448 17.5H24.282V20.1875H8.28198C7.57365 20.1875 6.94865 19.9167 6.40698 19.375C5.90698 18.8333 5.65698 18.2083 5.65698 17.5C5.65698 17.0833 5.76115 16.6667 5.96948 16.25L7.78198 12.9375L2.96948 2.8125H0.281982V0.1875ZM6.40698 22.3125C6.94865 21.7708 7.57365 21.5 8.28198 21.5C8.99032 21.5 9.61532 21.7708 10.157 22.3125C10.6986 22.8542 10.9695 23.4792 10.9695 24.1875C10.9695 24.8958 10.6986 25.5208 10.157 26.0625C9.61532 26.5625 8.99032 26.8125 8.28198 26.8125C7.57365 26.8125 6.94865 26.5625 6.40698 26.0625C5.90698 25.5208 5.65698 24.8958 5.65698 24.1875C5.65698 23.4792 5.90698 22.8542 6.40698 22.3125Z" fill="white"/>
</svg>
