<svg width="43" height="32" viewBox="0 0 43 32" fill="none" xmlns="http://www.w3.org/2000/svg">
<path d="M0 4C0 1.79086 1.79086 0 4 0H38.6667C40.8758 0 42.6667 1.79086 42.6667 4V28C42.6667 30.2091 40.8758 32 38.6667 32H4C1.79087 32 0 30.2091 0 28V4Z" fill="#158E5E"/>
<path d="M25.5 10H22.5C21.9477 10 21.5 10.4477 21.5 11V14H25.5C25.6137 13.9975 25.7216 14.0504 25.7892 14.1419C25.8568 14.2334 25.8758 14.352 25.84 14.46L25.1 16.66C25.0318 16.8619 24.8431 16.9984 24.63 17H21.5V24.5C21.5 24.7761 21.2761 25 21 25H18.5C18.2239 25 18 24.7761 18 24.5V17H16.5C16.2239 17 16 16.7761 16 16.5V14.5C16 14.2239 16.2239 14 16.5 14H18V11C18 8.79086 19.7909 7 22 7H25.5C25.7761 7 26 7.22386 26 7.5V9.5C26 9.77614 25.7761 10 25.5 10Z" fill="black"/>
</svg>
