<svg width="44" height="32" viewBox="0 0 44 32" fill="none" xmlns="http://www.w3.org/2000/svg">
<path d="M0.666748 4C0.666748 1.79086 2.45761 0 4.66675 0H39.3334C41.5425 0 43.3334 1.79086 43.3334 4V28C43.3334 30.2091 41.5425 32 39.3334 32H4.66675C2.45761 32 0.666748 30.2091 0.666748 28V4Z" fill="#158E5E"/>
<path fill-rule="evenodd" clip-rule="evenodd" d="M25.6667 7H17.6667C14.9053 7 12.6667 9.23858 12.6667 12V20C12.6667 22.7614 14.9053 25 17.6667 25H25.6667C28.4281 25 30.6667 22.7614 30.6667 20V12C30.6667 9.23858 28.4281 7 25.6667 7ZM28.9167 20C28.9112 21.7926 27.4593 23.2445 25.6667 23.25H17.6667C15.8741 23.2445 14.4222 21.7926 14.4167 20V12C14.4222 10.2074 15.8741 8.75549 17.6667 8.75H25.6667C27.4593 8.75549 28.9112 10.2074 28.9167 12V20ZM26.4167 12.25C26.969 12.25 27.4167 11.8023 27.4167 11.25C27.4167 10.6977 26.969 10.25 26.4167 10.25C25.8644 10.25 25.4167 10.6977 25.4167 11.25C25.4167 11.8023 25.8644 12.25 26.4167 12.25ZM21.6667 11.5C19.1815 11.5 17.1667 13.5147 17.1667 16C17.1667 18.4853 19.1815 20.5 21.6667 20.5C24.152 20.5 26.1667 18.4853 26.1667 16C26.1694 14.8057 25.6961 13.6596 24.8516 12.8151C24.0071 11.9706 22.861 11.4973 21.6667 11.5ZM18.9167 16C18.9167 17.5188 20.1479 18.75 21.6667 18.75C23.1855 18.75 24.4167 17.5188 24.4167 16C24.4167 14.4812 23.1855 13.25 21.6667 13.25C20.1479 13.25 18.9167 14.4812 18.9167 16Z" fill="black"/>
</svg>
