<svg width="43" height="32" viewBox="0 0 43 32" fill="none" xmlns="http://www.w3.org/2000/svg">
<path d="M0.333252 4C0.333252 1.79086 2.12411 0 4.33325 0H38.9999C41.209 0 42.9999 1.79086 42.9999 4V28C42.9999 30.2091 41.2091 32 38.9999 32H4.33326C2.12412 32 0.333252 30.2091 0.333252 28V4Z" fill="#158E5E"/>
<path d="M30.3059 10.7174C29.8415 11.3369 29.2801 11.8773 28.6434 12.3178C28.6434 12.4796 28.6434 12.6414 28.6434 12.8123C28.6485 15.7511 27.4746 18.5691 25.3849 20.6345C23.2951 22.6999 20.4643 23.8399 17.5272 23.7989C15.8291 23.8046 14.1528 23.4169 12.6296 22.6661C12.5474 22.6302 12.4944 22.549 12.4948 22.4593V22.3604C12.4948 22.2313 12.5994 22.1267 12.7284 22.1267C14.3976 22.0716 16.0072 21.4929 17.3295 20.4724C15.8187 20.4419 14.4593 19.5469 13.8337 18.1707C13.8021 18.0956 13.812 18.0093 13.8597 17.9432C13.9074 17.8771 13.9861 17.8407 14.0674 17.8471C14.5266 17.8932 14.9903 17.8505 15.4333 17.7212C13.7655 17.375 12.5123 15.9904 12.333 14.2957C12.3266 14.2144 12.3631 14.1357 12.4291 14.0879C12.4952 14.0402 12.5814 14.0303 12.6565 14.062C13.1041 14.2595 13.5872 14.3635 14.0764 14.3676C12.615 13.4085 11.9837 11.5841 12.5397 9.92622C12.5971 9.76513 12.7349 9.64612 12.9026 9.61294C13.0703 9.57975 13.2431 9.63728 13.3575 9.76439C15.3295 11.8633 18.0392 13.114 20.915 13.2528C20.8414 12.9589 20.8052 12.6568 20.8072 12.3537C20.8341 10.7647 21.8173 9.34921 23.2965 8.76987C24.7756 8.19054 26.458 8.56203 27.5561 9.71044C28.3045 9.56785 29.0281 9.31645 29.7038 8.96421C29.7533 8.93331 29.8161 8.93331 29.8656 8.96421C29.8965 9.01373 29.8965 9.07652 29.8656 9.12604C29.5383 9.87552 28.9854 10.5041 28.284 10.9242C28.8982 10.853 29.5016 10.7081 30.0813 10.4926C30.1301 10.4594 30.1942 10.4594 30.243 10.4926C30.2839 10.5113 30.3145 10.5471 30.3266 10.5904C30.3387 10.6337 30.3311 10.6802 30.3059 10.7174Z" fill="black"/>
</svg>
